<svg id="Layer_1" data-name="Layer 1" xmlns="http://www.w3.org/2000/svg" viewBox="0 0 373.29 326.37"><defs><style>.cls-1{fill:#4540c4;}</style></defs><path class="cls-1" d="M287.52,374v51.6h-5.68l-.29-6.63a14.1,14.1,0,0,1-5.79,5.49,16.93,16.93,0,0,1-7.85,1.88,18.21,18.21,0,0,1-13.23-5.05q-5.19-5.06-5.2-13.82,0-8.93,5.16-13.9a18.26,18.26,0,0,1,13.2-5,17.8,17.8,0,0,1,8,1.88,12.3,12.3,0,0,1,5.68,5.42V374.05h6Zm-19.17,20.2a12.73,12.73,0,0,0-9.17,3.5q-3.66,3.51-3.65,9.7t3.65,9.65a12.64,12.64,0,0,0,9.17,3.54,12.5,12.5,0,0,0,9.22-3.69,12.93,12.93,0,0,0,3.68-9.58,12.67,12.67,0,0,0-13-13.12Z" transform="translate(-205.65 -120.95)"/><path class="cls-1" d="M326.88,425.65l-.29-5.83a16.18,16.18,0,0,1-24.15,1.88q-4.38-4.53-4.38-12.35V389.23h6v20q0,5.31,2.95,8.33a11.73,11.73,0,0,0,16.18-.44,11.9,11.9,0,0,0,3.13-8.4V389.23h6.05v36.42h-5.53Z" transform="translate(-205.65 -120.95)"/><polygon class="cls-1" points="148.05 321.88 141.57 321.88 149.16 304.19 134.49 268.29 141.35 268.29 148.5 287.23 152.48 297.62 156.38 287.3 164.42 268.29 171.05 268.29 148.05 321.88"/><path class="cls-1" d="M413.17,425.65l-.29-5.83a16.17,16.17,0,0,1-24.14,1.88q-4.39-4.53-4.39-12.35V389.23h6v20q0,5.31,3,8.33a11.73,11.73,0,0,0,16.18-.44,11.94,11.94,0,0,0,3.13-8.4V389.23h6v36.42h-5.53Z" transform="translate(-205.65 -120.95)"/><path class="cls-1" d="M437.53,439.21a16.51,16.51,0,0,0,9.18,2.58,18.35,18.35,0,0,0,9.07-2.1,7,7,0,0,0,3.76-6.52,7.23,7.23,0,0,0-3.65-6.49,16.8,16.8,0,0,0-9.11-2.29q-8.68,0-14-4.79t-5.27-13.19q0-8.48,5.78-13.27a20.43,20.43,0,0,1,13.45-4.79q6.42,0,10.33,2.72l3.9-4.71,4.28,3.39-4.13,4.86a17.37,17.37,0,0,1,4.72,11.8,16.58,16.58,0,0,1-2.62,9.1,13.7,13.7,0,0,1-7.63,5.71q10,3,10,11.87a11.93,11.93,0,0,1-5.61,10.47,23.45,23.45,0,0,1-13.41,3.76q-8.4,0-13.6-4.17A13.4,13.4,0,0,1,428,431.76h5.82a8.39,8.39,0,0,0,3.72,7.45m-.18-23.44a13.87,13.87,0,0,0,9.51,3.32,12.84,12.84,0,0,0,9.43-3.65,12.12,12.12,0,0,0,3.69-9q0-6-3.87-9.29a13.86,13.86,0,0,0-9.33-3.31,14.14,14.14,0,0,0-9.28,3.28q-4,3.27-4,9.25t3.83,9.36" transform="translate(-205.65 -120.95)"/><path class="cls-1" d="M504.72,425.79l-.15-6.63a13.53,13.53,0,0,1-5.75,5.49,16.67,16.67,0,0,1-7.66,1.88,18.29,18.29,0,0,1-13.35-5.2q-5.3-5.19-5.3-13.89t5.34-13.75a18.32,18.32,0,0,1,13.38-5.05,17.18,17.18,0,0,1,7.89,1.88,13,13,0,0,1,5.6,5.35l.07-6.64h5.9v36.42h-5.82Zm-13.27-31.4a13.31,13.31,0,1,0,0,26.61,13.81,13.81,0,0,0,6.45-1.47,10.73,10.73,0,0,0,4.31-3.84,16.78,16.78,0,0,0,2.14-5.19,12.39,12.39,0,0,0,0-5.68,16.78,16.78,0,0,0-2.14-5.19,10.74,10.74,0,0,0-4.27-3.84,13.61,13.61,0,0,0-6.41-1.47Z" transform="translate(-205.65 -120.95)"/><path class="cls-1" d="M521.82,389.3h5.6l.37,5.31a10,10,0,0,1,4.46-4.49,13.66,13.66,0,0,1,6.3-1.48,14.61,14.61,0,0,1,7.45,1.92,10.89,10.89,0,0,1,4.79,6,13.51,13.51,0,0,1,5.31-6,14.52,14.52,0,0,1,7.51-2q7.15,0,11.25,4.35T579,404.86v20.79H572.9V404.86a11.22,11.22,0,0,0-2.54-7.56,8.58,8.58,0,0,0-6.89-3,9.23,9.23,0,0,0-7.19,3.06,11,11,0,0,0-2.76,7.63v20.64h-6V405a11.15,11.15,0,0,0-2.69-7.63,9,9,0,0,0-7.11-3.06,9.12,9.12,0,0,0-7.15,3.06,11,11,0,0,0-2.73,7.63v20.64h-6V389.23Z" transform="translate(-205.65 -120.95)"/><path class="cls-1" d="M233.65,417a13.34,13.34,0,0,1-18.38,0,12,12,0,0,1-2.64-4.06l24.48-8.27,5.68-1.92a17.86,17.86,0,0,0-2-5.17,17.22,17.22,0,0,0-2.81-3.7,18.87,18.87,0,0,0-32.37,13.72c0,.63,0,1.24.08,1.84a19.56,19.56,0,0,0,1.18,5.43,17.34,17.34,0,0,0,4.06,6.2,20,20,0,0,0,27,0,18.19,18.19,0,0,0,2-2.29l-5-3.27a12.49,12.49,0,0,1-1.25,1.49M215.3,397.83a13.12,13.12,0,0,1,18.39,0,13.16,13.16,0,0,1,1.34,1.66l-23.35,7.89a13.38,13.38,0,0,1,3.62-9.59" transform="translate(-205.65 -120.95)"/><g id="Layer_4" data-name="Layer 4"><path class="cls-1" d="M335.31,258.43c9.85-31.75,45.21-48.18,76.63-37.34A60.19,60.19,0,0,1,449.44,259l-93.05-.52L356.34,285H332.42a113.85,113.85,0,0,1,0-13.89A80.15,80.15,0,0,1,335.31,258.43ZM422.36,192A91,91,0,1,0,445,352.39l-18.41-23.92A60.68,60.68,0,0,1,332.42,285h23.92l106.78,1h20.3a90.47,90.47,0,0,0-1.83-26.18c-6.41-29.35-29.23-56.65-59.23-67.79" transform="translate(-205.65 -120.95)"/></g><path class="cls-1" d="M405.53,145.45c-11.23-14.47-11.23-20.07-11.74-23s-2.57-1-2.57,0c-.52,6.64-5.94,14.3-12.07,22.81-31.15,27.06-21.27,45.63-21.27,45.63l6.94-2.46s-5.34-5.77-.27-9.09c5.66-3.7,8.59-.5,11.11.68,2.72,1.28,5.79,3.49,15.36,3.79a55.56,55.56,0,0,0,14.94-2c5.27-1.45,10.93-7.06,16.17-2.34,4.49,4.06-.94,9.36-.94,9.36l5.94,2C434,170.45,412.13,150.66,405.53,145.45Zm-13,3.23a4.68,4.68,0,1,1-4.68,4.68A4.67,4.67,0,0,1,392.5,148.68ZM385,159.15a11.61,11.61,0,0,0,15,0c4-2.75,4.82,2.58,3.57,4A15.3,15.3,0,0,1,392.45,168h0a15.35,15.35,0,0,1-11.06-4.85C380.15,161.73,381,156.4,385,159.15Zm28,13.93c-1.94,2.25-11.38,7.58-20.5,7.58s-18.56-5.33-20.5-7.58-.65-10.56,5.58-6.28,14.92,4.27,14.92,4.27,8.69,0,14.92-4.27S414.93,170.84,413,173.08Z" transform="translate(-205.65 -120.95)"/></svg>